<svg xmlns="http://www.w3.org/2000/svg" version="1.1" xmlns:xlink="http://www.w3.org/1999/xlink" xmlns:svgjs="http://svgjs.dev/svgjs" width="1400" height="700" preserveAspectRatio="none" viewBox="0 0 1400 700"><g mask="url(&quot;#SvgjsMask1071&quot;)" fill="none"><rect width="1400" height="700" x="0" y="0" fill="rgba(220, 237, 255, 1)"></rect><path d="M10 700L710 0L984.5 0L284.5 700z" fill="url(&quot;#SvgjsLinearGradient1072&quot;)"></path><path d="M527 700L1227 0L1837.5 0L1137.5 700z" fill="url(&quot;#SvgjsLinearGradient1072&quot;)"></path><path d="M1322 700L622 0L467.5 0L1167.5 700z" fill="url(&quot;#SvgjsLinearGradient1073&quot;)"></path><path d="M890 700L190 0L-45.5 0L654.5 700z" fill="url(&quot;#SvgjsLinearGradient1073&quot;)"></path><path d="M876.5600011381491 700L1400 176.56000113814912L1400 700z" fill="url(&quot;#SvgjsLinearGradient1072&quot;)"></path><path d="M0 700L523.4399988618509 700L 0 176.56000113814912z" fill="url(&quot;#SvgjsLinearGradient1073&quot;)"></path></g><defs><mask id="SvgjsMask1071"><rect width="1400" height="700" fill="#ffffff"></rect></mask><linearGradient x1="0%" y1="100%" x2="100%" y2="0%" id="SvgjsLinearGradient1072"><stop stop-color="rgba(0, 80, 255, 0.2)" offset="0"></stop><stop stop-opacity="0" stop-color="rgba(0, 80, 255, 0.2)" offset="0.66"></stop></linearGradient><linearGradient x1="100%" y1="100%" x2="0%" y2="0%" id="SvgjsLinearGradient1073"><stop stop-color="rgba(0, 80, 255, 0.2)" offset="0"></stop><stop stop-opacity="0" stop-color="rgba(0, 80, 255, 0.2)" offset="0.66"></stop></linearGradient></defs></svg>