<svg xmlns="http://www.w3.org/2000/svg" version="1.1" xmlns:xlink="http://www.w3.org/1999/xlink" xmlns:svgjs="http://svgjs.dev/svgjs" width="1440" height="300" preserveAspectRatio="none" viewBox="0 0 1440 300"><g mask="url(&quot;#SvgjsMask1007&quot;)" fill="none"><rect width="1440" height="300" x="0" y="0" fill="rgba(63, 63, 63, 1)"></rect><path d="M150 69.93C131.25 69.93 112.5 70.39 112.5 75C112.5 79.87 131.25 88.89 150 88.89C168.75 88.89 187.5 79.87 187.5 75C187.5 70.39 168.75 69.93 150 69.93" stroke="rgba(51, 121, 194, 0.18)" stroke-width="2"></path><path d="M450 57.5C442.56 57.5 439.5 66.13 439.5 75C439.5 84.6 442.33 94.44 450 94.44C462.17 94.44 479.17 84.37 479.17 75C479.17 65.9 462.4 57.5 450 57.5" stroke="rgba(51, 121, 194, 0.18)" stroke-width="2"></path><path d="M375 138.24C352.67 138.24 328.85 144.88 328.85 150C328.85 155.05 352.35 158.57 375 158.57C386.14 158.57 396.43 154.94 396.43 150C396.43 144.77 386.46 138.24 375 138.24" stroke="rgba(51, 121, 194, 0.18)" stroke-width="2"></path><path d="M1425 114.29C1417.25 114.29 1408.33 134.34 1408.33 150C1408.33 158.14 1416.93 161.9 1425 161.9C1432.21 161.9 1438.89 157.69 1438.89 150C1438.89 133.89 1432.53 114.29 1425 114.29" stroke="rgba(51, 121, 194, 0.18)" stroke-width="2"></path><path d="M1350 199.53C1332.94 199.53 1311.43 210.31 1311.43 225C1311.43 242.33 1333.9 263.57 1350 263.57C1362.69 263.57 1369.01 243.41 1369.01 225C1369.01 211.39 1361.73 199.53 1350 199.53" stroke="rgba(51, 121, 194, 0.18)" stroke-width="2"></path><path d="M13.64 0C13.64 6.67 3.72 20.69 0 20.69C-3.1 20.69 -4.11 6.23 0 0C2.71 -4.11 13.64 -3.67 13.64 0" stroke="rgba(51, 121, 194, 0.18)" stroke-width="2"></path><path d="M150 44.59C126.59 44.59 108.75 13.28 108.75 0C108.75 -9.02 129.38 0 150 0C184.38 0 218.75 -10.17 218.75 0C218.75 12.12 181.59 44.59 150 44.59" stroke="rgba(51, 121, 194, 0.18)" stroke-width="2"></path><path d="M296.43 75C266.29 37.68 235.47 22.57 236.54 0C237.25 -14.93 268.27 0 300 0C325.78 0 329.38 -7.92 351.56 0C366.88 5.47 365.12 12.1 375 26.79C390.34 49.6 402 52.83 402 75C402 90.17 391.59 100.89 375 101.47C340.59 102.67 336.91 91 300 78.57C297.62 77.77 298.02 76.96 296.43 75" stroke="rgba(51, 121, 194, 0.18)" stroke-width="2"></path><path d="M525 45C493.82 45 456.52 12.26 456.52 0C456.52 -10.24 490.76 0 525 0C544.69 0 564.38 -8.93 564.38 0C564.38 13.57 547.75 45 525 45" stroke="rgba(51, 121, 194, 0.18)" stroke-width="2"></path><path d="M614.22 75C625.71 39.65 610.09 23.43 629.08 0C640.48 -14.07 652.04 0 675 0C711.29 0 715.68 -5.32 747.58 0C753.18 0.93 748.98 12.5 750 12.5C751.01 12.5 746.13 0.92 751.63 0C783.63 -5.33 788.32 0 825 0C843.55 0 862.09 -8.18 862.09 0C862.09 12.15 846.93 24.75 825 40.66C795.25 62.25 791.32 57 758.72 75C753.82 77.71 752.98 77.37 750 82.08C729.26 114.87 711.29 118.2 711.29 150C711.29 173.34 729.26 172.64 750 192.35C768.73 210.14 783.22 203.05 790.22 225C800.38 256.88 798.12 274.25 784.31 300C778.01 311.75 767.15 300 750 300C722.67 300 705.22 315.76 695.34 300C681.71 278.26 709.78 258.34 702.97 225C699.61 208.52 688.5 200.37 675 200.37C662.56 200.37 655.47 209.37 651.09 225C641.51 259.19 662.79 276.95 647.09 300C637.25 314.45 623.55 300 600 300C565.09 300 539.13 317.34 530.17 300C519.76 279.84 555.41 263.87 561.26 225C566.7 188.87 543.14 183.59 552.74 150C562.51 115.83 575.68 119.13 600 89.47C606.42 81.63 611.17 84.38 614.22 75" stroke="rgba(51, 121, 194, 0.18)" stroke-width="2"></path><path d="M863.51 75C868 53.84 882.13 42.07 900 42.07C917.04 42.07 918.81 56.75 933.33 75C956.31 103.89 946.64 127 975 136.36C1004.98 146.25 1016.57 131.65 1050 113.49C1073.06 100.97 1087.99 94.44 1087.99 75C1087.99 55.16 1068.76 55.18 1050 34.93C1034.02 17.68 1018.52 10.46 1018.52 0C1018.52 -7 1034.26 0 1050 0C1070.24 0 1073.2 -7.48 1090.48 0C1110.7 8.75 1104.01 28.87 1125 32.46C1158.77 38.24 1163.39 15.34 1200 18.75C1238.39 22.33 1239.62 28.74 1275 46.43C1295.87 56.86 1295.92 58.48 1312.5 75C1333.42 95.84 1332.64 97.12 1350 121.15C1359.73 134.62 1366.67 137.02 1366.67 150C1366.67 158.52 1359.32 158.49 1350 164.15C1313.48 186.32 1310.08 182.03 1275 205.65C1264.89 212.46 1269.73 218.27 1259.62 225C1232.23 243.24 1228.82 238.59 1200 255.59C1165.26 276.09 1166.81 279.68 1132.5 300C1129.31 301.89 1128.75 300 1125 300C1120.93 300 1118.68 303.41 1116.85 300C1098.57 265.91 1105.63 259.24 1084.78 225C1072.21 204.35 1071.74 196.82 1050 190.22C1016.85 180.15 1004.27 179.82 975 191.67C961.32 197.21 975.19 212.16 964.09 225C937.69 255.53 929.63 278.41 900 278.41C875.28 278.41 860.78 255.26 855.38 225C849.32 191.05 875.02 187.95 877.08 150C879.09 112.95 856.54 107.81 863.51 75" stroke="rgba(51, 121, 194, 0.18)" stroke-width="2"></path><path d="M1350 22.83C1342.82 22.83 1334.09 7.26 1334.09 0C1334.09 -4.15 1342.05 0 1350 0C1355.84 0 1361.67 -3.57 1361.67 0C1361.67 7.84 1356.61 22.83 1350 22.83" stroke="rgba(51, 121, 194, 0.18)" stroke-width="2"></path><path d="M1500 30.56C1492.11 30.56 1472.5 9.16 1472.5 0C1472.5 -6.12 1493.49 -7.24 1500 0C1507.24 8.04 1505.86 30.56 1500 30.56" stroke="rgba(51, 121, 194, 0.18)" stroke-width="2"></path><path d="M0 114.38C25.43 101.67 39.99 103.61 75 112.5C110.1 121.42 140.22 131.25 140.22 150C140.22 168.75 104.67 165.09 75 187.5C55.01 202.59 57.96 206.25 40.91 225C20.46 247.5 11.76 270 0 270C-8.7 270 0 247.5 0 225C0 187.5 0 187.5 0 150C0 132.19 -12.07 120.42 0 114.38" stroke="rgba(51, 121, 194, 0.18)" stroke-width="2"></path><path d="M156.08 150C169.56 118.19 192.73 102.78 225 102.78C250.8 102.78 262.19 121.24 272.22 150C283.51 182.35 258.6 192.79 267.65 225C272.49 242.24 284.25 248.91 300 248.91C314.41 248.91 313.93 236.89 327.97 225C351.43 205.12 353.35 185.36 375 185.36C393 185.36 407.27 204.65 407.27 225C407.27 247.21 391.97 248.4 375 270.49C363.16 285.9 366.12 293.52 349.65 300C328.62 308.27 324.83 300 300 300C267.36 300 264.28 305.75 234.72 300C226.78 298.46 230.55 292.19 225 285.42C199.8 254.69 190.73 259.43 173.21 225C156.27 191.72 143.67 179.3 156.08 150" stroke="rgba(51, 121, 194, 0.18)" stroke-width="2"></path><path d="M1125 133.16C1114.17 137.8 1107.81 141.54 1107.81 150C1107.81 158.55 1113.72 164.95 1125 167.19C1159.81 174.1 1164.82 174.48 1200 168.29C1213.68 165.88 1222.73 161.28 1222.73 150C1222.73 132.4 1217.97 113.63 1200 110.53C1169.1 105.21 1160.26 118.06 1125 133.16" stroke="rgba(51, 121, 194, 0.18)" stroke-width="2"></path><path d="M1473.61 150C1487.68 136.94 1492.36 122.06 1500 122.06C1505.55 122.06 1500 136.03 1500 150C1500 187.5 1500 187.5 1500 225C1500 262.5 1503.63 266.13 1500 300C1499.61 303.63 1495.56 301.7 1491.96 300C1458.06 284.01 1454.2 287.31 1425 264.62C1405.93 249.81 1395.42 244.18 1395.42 225C1395.42 207.71 1408.96 207.06 1425 191.67C1448.05 169.56 1450.18 171.75 1473.61 150" stroke="rgba(51, 121, 194, 0.18)" stroke-width="2"></path><path d="M1251.92 300C1251.92 280.81 1258.33 246.43 1275 246.43C1296.65 246.43 1328.57 284.31 1328.57 300C1328.57 311.09 1301.78 300 1275 300C1263.46 300 1251.92 307.59 1251.92 300" stroke="rgba(51, 121, 194, 0.18)" stroke-width="2"></path><path d="M150 19.26C139.89 19.26 132.19 5.74 132.19 0C132.19 -3.89 141.1 0 150 0C164.85 0 179.69 -4.39 179.69 0C179.69 5.24 163.64 19.26 150 19.26" stroke="rgba(51, 121, 194, 0.18)" stroke-width="2"></path><path d="M646.55 75C664.72 41.99 654.4 34.14 667.35 0C668.62 -3.36 671.17 0 675 0C681.05 0 684.51 -4.94 687.1 0C704.16 32.56 713.27 37.2 714.29 75C715.29 112.2 705.67 113.97 691.13 150C686.02 162.67 684.19 162.14 675 172.39C650.58 199.64 641.27 194.03 623.91 225C605.51 257.83 614.93 264.11 603.49 300C602.98 301.61 601.74 300 600 300C597.41 300 595.41 302.39 594.83 300C586.34 264.89 586 262.76 581.87 225C577.8 187.76 572.24 184.98 578.42 150C581.31 133.67 588.23 135.33 600 122.37C622.3 97.83 631.05 103.17 646.55 75" stroke="rgba(51, 121, 194, 0.18)" stroke-width="2"></path><path d="M825 18.07C810.18 18.07 792.39 4.82 792.39 0C792.39 -4.22 808.69 0 825 0C833.24 0 841.48 -3.64 841.48 0C841.48 5.4 834.72 18.07 825 18.07" stroke="rgba(51, 121, 194, 0.18)" stroke-width="2"></path><path d="M888.85 75C888.85 68.51 894.54 64.94 900 64.94C905.21 64.94 910.19 68.69 910.19 75C910.19 90.22 905.31 108 900 108C894.64 108 888.85 90.04 888.85 75" stroke="rgba(51, 121, 194, 0.18)" stroke-width="2"></path><path d="M1050 9.25C1045.54 9.25 1041.67 2.77 1041.67 0C1041.67 -1.85 1045.84 0 1050 0C1055.36 0 1060.71 -1.99 1060.71 0C1060.71 2.63 1055.06 9.25 1050 9.25" stroke="rgba(51, 121, 194, 0.18)" stroke-width="2"></path><path d="M1112.34 75C1112.34 67.25 1117.02 60.45 1125 60.45C1140.16 60.45 1158.62 66.66 1158.62 75C1158.62 83.89 1139.43 94.9 1125 94.9C1116.29 94.9 1112.34 84.48 1112.34 75" stroke="rgba(51, 121, 194, 0.18)" stroke-width="2"></path><path d="M206.76 150C207.57 140.12 216.46 137.5 225 137.5C231.83 137.5 236.94 141.68 237.5 150C239.88 185.43 236.38 188.3 230.88 225C230.13 229.97 228.14 233.33 225 233.33C221.63 233.33 219.01 230.27 217.86 225C209.89 188.6 204 183.87 206.76 150" stroke="rgba(51, 121, 194, 0.18)" stroke-width="2"></path><path d="M1016.67 150C1016.67 143.82 1033.99 138.16 1050 138.16C1060.03 138.16 1068.75 143.87 1068.75 150C1068.75 156.31 1060.14 163.04 1050 163.04C1034.1 163.04 1016.67 156.26 1016.67 150" stroke="rgba(51, 121, 194, 0.18)" stroke-width="2"></path><path d="M359.75 225C359.75 218.31 367.98 212.14 375 212.14C380.84 212.14 385.47 218.4 385.47 225C385.47 232.2 380.92 239.75 375 239.75C368.06 239.75 359.75 232.12 359.75 225" stroke="rgba(51, 121, 194, 0.18)" stroke-width="2"></path><path d="M734.75 225C737.01 216.54 742.57 214.41 750 214.41C756.72 214.41 761.73 217.17 763.04 225C768.91 259.96 769.83 268.53 764.36 300C763.31 306.03 757.18 300 750 300C738.56 300 728.9 308.73 727.12 300C721.27 271.23 725.57 259.34 734.75 225" stroke="rgba(51, 121, 194, 0.18)" stroke-width="2"></path><path d="M879.11 225C879.11 203.5 887.81 179.17 900 179.17C913.26 179.17 930 204.32 930 225C930 239.74 913.87 250 900 250C888.43 250 879.11 238.91 879.11 225" stroke="rgba(51, 121, 194, 0.18)" stroke-width="2"></path><path d="M1111.96 225C1111.96 215.06 1114.77 207.53 1125 206.25C1158.79 202.04 1164.28 206.28 1200 214.02C1207.55 215.66 1211.54 220.34 1211.54 225C1211.54 228.79 1206.15 228.92 1200 230.92C1162.88 242.98 1156.52 255.25 1125 253.13C1112.5 252.29 1111.96 238.5 1111.96 225" stroke="rgba(51, 121, 194, 0.18)" stroke-width="2"></path><path d="M1421.83 225C1421.83 223.15 1422.98 222.69 1425 221.43C1462.06 198.42 1475.88 175.32 1500 176.47C1513.38 177.11 1500 200.74 1500 225C1500 237.5 1509.12 249.48 1500 250C1471.62 251.61 1461.59 240.95 1425 229.25C1422.51 228.45 1421.83 227.06 1421.83 225" stroke="rgba(51, 121, 194, 0.18)" stroke-width="2"></path><path d="M269.44 300C269.44 293.31 285.53 276.09 300 276.09C312.43 276.09 323.24 292.96 323.24 300C323.24 304.91 311.62 300 300 300C284.72 300 269.44 305.27 269.44 300" stroke="rgba(51, 121, 194, 0.18)" stroke-width="2"></path></g><defs><mask id="SvgjsMask1007"><rect width="1440" height="300" fill="#ffffff"></rect></mask></defs></svg>